<svg width="139" height="21" viewBox="0 0 139 21" fill="none" xmlns="http://www.w3.org/2000/svg">
<g clip-path="url(#clip0_6528_3940)">
<path d="M45.4756 1.03884C45.4756 1.03884 45.4842 1.04253 45.4842 1.04745V5.63366C45.4842 10.8877 41.6176 15.3485 36.4411 16.1281C36.4386 16.1306 36.4374 16.1331 36.4336 16.1356V20.8767C36.4336 20.8767 36.43 20.8854 36.4251 20.8854H33.2479C33.2479 20.8854 33.2392 20.8816 33.2392 20.8767V16.1356C33.2392 16.1356 33.2355 16.1306 33.2318 16.1281C28.0553 15.3472 24.1888 10.8877 24.1888 5.63366V1.04745C24.1888 1.04745 24.1925 1.03884 24.1973 1.03884H27.3745C27.3745 1.03884 27.3832 1.04253 27.3832 1.04745V5.48853C27.3832 9.81273 30.9328 13.2994 35.2632 13.0547C39.1767 12.8333 42.291 9.59017 42.291 5.63366V1.04745C42.291 1.04745 42.2947 1.03884 42.2996 1.03884H45.4768H45.4756ZM58.706 0.741211C58.6542 0.741211 58.6012 0.741211 58.5482 0.741211C52.7019 0.826077 48.0582 5.69514 48.0582 11.526V20.8755C48.0582 20.8755 48.062 20.8841 48.0669 20.8841H51.2441C51.2441 20.8841 51.2527 20.8804 51.2527 20.8755V11.3563C51.2527 7.40099 54.3682 4.15658 58.2805 3.93519C62.6109 3.69045 66.1605 7.17715 66.1605 11.5014V20.8755C66.1605 20.8755 66.1643 20.8841 66.1692 20.8841H69.3464C69.3464 20.8841 69.3537 20.8804 69.3537 20.8767V11.3575C69.3525 5.50329 64.5769 0.741211 58.706 0.741211ZM11.5121 1.00933H0.388272C0.388272 1.00933 0.379639 1.01302 0.379639 1.01794V4.1947H3.57285H11.5355C15.2344 4.1947 18.3499 7.09844 18.4338 10.7857C18.5189 14.5761 15.4528 17.6865 11.6699 17.6865H3.58149C3.58149 17.6865 3.57285 17.6827 3.57285 17.6778V5.71728H0.379639V20.8607C0.379639 20.8607 0.383339 20.8694 0.388272 20.8694H11.6712C17.2115 20.8694 21.7097 16.3348 21.6283 10.793C21.5493 5.33972 16.9809 1.00933 11.5121 1.00933ZM78.5856 9.3774V12.5455C78.5856 12.5455 78.5892 12.5542 78.5942 12.5542H91.1142C91.1142 12.5542 91.1228 12.5505 91.1228 12.5455V9.3774C91.1228 9.3774 91.1191 9.36879 91.1142 9.36879H78.5942C78.5942 9.36879 78.5856 9.37248 78.5856 9.3774ZM111.665 9.36879H101.082C100.267 9.36879 99.6048 8.70957 99.6048 7.8954V5.69392C99.6048 4.88097 100.266 4.22053 101.082 4.22053H115.207C115.207 4.22053 115.215 4.21684 115.215 4.21192V1.04745C115.215 1.04745 115.212 1.03884 115.207 1.03884H101.082C98.5034 1.03884 96.4116 3.12348 96.4116 5.69638V7.89785C96.4116 10.4695 98.5022 12.5553 101.082 12.5553H111.665C112.48 12.5553 113.142 13.2146 113.142 14.0288V16.4024C113.142 17.2167 112.481 17.8759 111.665 17.8759H79.0345C77.4854 17.8759 76.2299 16.6238 76.2299 15.0791V7.01973C76.2299 5.475 77.4854 4.22299 79.0345 4.22299H92.6904C92.6904 4.22299 92.6991 4.2193 92.6991 4.21438V1.04745C92.6991 1.04745 92.6954 1.03884 92.6904 1.03884H79.0345C75.7217 1.03884 73.0366 3.71627 73.0366 7.01973V14.9057C73.0366 18.2092 75.7217 20.8866 79.0345 20.8866H111.665C114.244 20.8866 116.335 18.802 116.335 16.229V14.0275C116.335 11.4559 114.245 9.37001 111.665 9.37001V9.36879ZM134.151 9.36879H123.569C122.754 9.36879 122.091 8.70957 122.091 7.8954V5.69392C122.091 4.88097 122.753 4.22053 123.569 4.22053H137.693C137.693 4.22053 137.702 4.21684 137.702 4.21192V1.04745C137.702 1.04745 137.699 1.03884 137.693 1.03884H123.569C120.99 1.03884 118.898 3.12348 118.898 5.69638V7.89785C118.898 10.4695 120.989 12.5553 123.569 12.5553H134.152C134.968 12.5553 135.629 13.2146 135.629 14.0275V16.229C135.629 17.0432 134.968 17.7024 134.151 17.7024H120.027C120.027 17.7024 120.018 17.7062 120.018 17.711V20.8792C120.018 20.8792 120.022 20.8878 120.027 20.8878H134.151C136.731 20.8878 138.822 18.8032 138.822 16.2302V14.0288C138.822 11.4571 136.732 9.37125 134.151 9.37125V9.36879Z" fill="url(#paint0_linear_6528_3940)"/>
</g>
<defs>
<linearGradient id="paint0_linear_6528_3940" x1="0.379639" y1="10.8139" x2="138.821" y2="10.8139" gradientUnits="userSpaceOnUse">
<stop stop-color="#56C500"/>
<stop offset="0.06" stop-color="#54C405"/>
<stop offset="0.14" stop-color="#4FC416"/>
<stop offset="0.23" stop-color="#46C331"/>
<stop offset="0.33" stop-color="#3BC357"/>
<stop offset="0.43" stop-color="#2CC286"/>
<stop offset="0.45" stop-color="#2AC28F"/>
<stop offset="0.51" stop-color="#1DBDAD"/>
<stop offset="0.58" stop-color="#12B8C8"/>
<stop offset="0.66" stop-color="#0AB5DC"/>
<stop offset="0.74" stop-color="#04B2EB"/>
<stop offset="0.84" stop-color="#01B1F4"/>
<stop offset="1" stop-color="#00B1F7"/>
</linearGradient>
<clipPath id="clip0_6528_3940">
<rect width="139" height="21" fill="white"/>
</clipPath>
</defs>
</svg>
