<svg width="60" height="30" viewBox="0 0 60 30" fill="none" xmlns="http://www.w3.org/2000/svg">
<path d="M33 11.8C31.5 11.8 30.2 12.8 29.8 14H35.3C35.3 12.7 34.4 11.8 33 11.8Z" fill="#FF073C"/>
<path d="M29.6 0C16.6 0 6 5.4 6 13.5C6 18.7 10.4 23.3 17 25.9L16.3 29.7C35.6 31.3 53.3 25.2 53.3 13.7C53.2 4 40.2 0 29.6 0ZM27.2 9.4L26.6 12.3H24.1L23.3 16.5C23.1 17.7 23.6 18.5 24.7 18.5H25.4L24.8 21.4H24C20.8 21.4 19.6 19.3 20.1 16.5L22 6.7H25.2L24.7 9.5H27.2V9.4ZM32 18.7C33.1 18.7 33.8 18.3 34.4 17.5H37.7C36.7 19.9 34.5 21.2 31.8 21.2C28.1 21.2 25.9 18.2 26.7 14.4C27.3 11.2 29.7 9.3 33.1 9.3C37.2 9.3 39.3 12.4 38.1 16.4H29.5C29.4 17.8 30.5 18.7 32 18.7ZM20.2 9.4H17L17.5 6.6H20.7L20.2 9.4ZM20 10.6L17.9 21.2H14.7L16.8 10.6H20ZM44 21.2H43.2C40.2 21.2 38.8 19.3 39.3 16.3L41.2 6.5H44.4L42.5 16.4C42.3 17.6 42.8 18.4 43.9 18.4H44.6L44 21.2Z" fill="#FF073C"/>
<path d="M31.8 21.2C34.5 21.2 36.7 19.9 37.7 17.5H34.4C33.8 18.3 33.1 18.7 32 18.7C30.6 18.7 29.5 17.7 29.4 16.4H38C39.3 12.4 37.2 9.29999 33 9.29999C29.6 9.29999 27.2 11.2 26.6 14.4C25.9 18.3 28.1 21.2 31.8 21.2ZM33 11.8C34.5 11.8 35.4 12.7 35.4 14H29.9C30.2 12.8 31.4 11.8 33 11.8Z" fill="white"/>
<path d="M24 21.2H24.8L25.4 18.3H24.7C23.6 18.3 23.1 17.5 23.3 16.3L24.1 12.1H26.6L27.2 9.20002H24.7L25.2 6.40002H22L20.1 16.2C19.6 19.1 20.8 21.2 24 21.2Z" fill="white"/>
<path d="M43.1 21.2H44L44.6 18.3H43.9C42.8 18.3 42.2 17.5 42.5 16.3L44.4 6.40002H41.2L39.3 16.2C38.7 19.3 40.1 21.2 43.1 21.2Z" fill="white"/>
<path d="M20.8 6.5H17.6L17.1 9.4H20.2L20.8 6.5Z" fill="white"/>
<path d="M20 10.6H16.8L14.7 21.2H17.9L20 10.6Z" fill="white"/>
</svg>
